<svg version="1.1" id="Layer_1" x="0" y="0" xml:space="preserve" xmlns:xlink="http://www.w3.org/1999/xlink" xmlns="http://www.w3.org/2000/svg" viewBox="0 0 1000 1000"><defs id="defs899"><linearGradient id="linearGradient8385"><stop id="stop8387" offset="0" stop-color="#000" stop-opacity="1"/><stop id="stop8389" offset="1" stop-color="#fff" stop-opacity="1"/></linearGradient><linearGradient x1="-553.27" y1="525.91" x2="-666.12" y2="413.05" id="linearGradient3002" xlink:href="#linearGradient8385" gradientUnits="userSpaceOnUse" gradientTransform="matrix(.99884 0 0 .9987 689 -388.84)"/><linearGradient x1="-666.12" y1="413.04" x2="-553.27" y2="525.91" id="linearGradient3005" xlink:href="#linearGradient8385" gradientUnits="userSpaceOnUse" gradientTransform="matrix(.99884 0 0 .9987 689 -388.84)"/></defs><style type="text/css" id="style886">.st0{fill:none}</style><g id="g7222" transform="translate(-27.03 -33.83)"><path id="path7054" d="m72.68 558.62 90.45 335.88c0 .72.37 1.45 1 2.08a6.62 6.62 0 0 0 2.6 1.52L626.4 1021.5h43.13l352.4-352.3a4.83 4.83 0 0 0 1.45-2.26c.18-.8 0-1.72-.71-2.8l-30.73-114.72c-29.08.3-59.08-1.1-81.63-6.42-62.2-14.69-113.6-90.54-181.05-90.54-67.45 0-113.6 90.54-181.06 90.54-67.45 0-113.6-90.54-181.04-90.54-67.45 0-113.6 90.54-181.05 90.54-36.94 0-75.26 8.19-113.44 15.63z" fill="#11fff6" fill-opacity=".45" stroke-width="21.49" stroke-linecap="square" stroke-linejoin="round"/><path d="M1021.95 669.18 662.61 1028.4c-1.44 1.44-3.6 2.16-5.03 1.44L166.72 898.11c-2.15-.72-3.59-2.16-3.59-3.6L30.9 403.53c-.71-2.16 0-3.6 1.44-5.04L391.67 39.26c1.44-1.44 3.6-2.16 5.03-1.44l490.86 131.74c2.15.72 3.6 2.16 3.6 3.6l131.5 490.98c1.45 2.16.73 3.6-.7 5.04z" id="path888" fill="none" fill-opacity="1" stroke="#11fff6" stroke-width="7.19" stroke-opacity="1"/><path id="rect4150" d="M181.28 460.93c-44.05 0-81.28 32.2-119.12 58.74L163.13 894.5c0 1.44 1.44 2.88 3.6 3.6l490.85 131.75c1.44.72 3.6 0 5.03-1.45l359.34-359.22c1.44-1.44 2.15-2.89.71-5.05l-48.01-179.26c-21.78-13.68-44.4-23.94-69.18-23.94-67.45 0-113.6 90.52-181.04 90.52-67.45 0-113.6-90.52-181.05-90.52-67.45 0-113.6 90.52-181.06 90.52-67.45 0-113.6-90.52-181.04-90.52z" fill="#11fff6" stroke-width="21.49" stroke-linecap="square" stroke-linejoin="round"/></g></svg>